<?xml version="1.0" encoding="UTF-8"?>
<svg width="752pt" height="752pt" version="1.1" viewBox="0 0 752 752" xmlns="http://www.w3.org/2000/svg">
 <path d="m478.44 588.74c-1.3242-2.9297-2.4375-5.9609-3.3125-9.1367l-0.070312-0.21094c-1.4688-5.4414-2.2148-11.227-2.1094-17.191 0.28125-16.98 7.4453-32.285 18.777-43.234 11.297-10.914 26.812-17.539 43.793-17.262 7.5508 0.14062 14.75 1.6055 21.375 4.1836 4.043 1.5703 7.8633 3.5898 11.434 5.9609v-53.277c-1.9883-0.62891-3.9766-1.2188-6-1.7422-2.9102-0.76562-5.9258-1.4297-8.9961-1.9531-1.793-0.3125-3.2578-1.7773-3.5039-3.6602l-5.25-39.574-15.047-0.24609-6.6055 39.367c-0.29688 1.8125-1.7422 3.2773-3.6445 3.5195-3.8672 0.55859-7.6875 1.293-11.453 2.2305-3.8008 0.94141-7.5664 2.0898-11.23 3.4492-1.707 0.59375-3.6953 0.070312-4.8477-1.4297l-24.336-31.66-13.145 7.3242 13.84 37.098c0.85547 1.7773 0.38281 3.9414-1.2188 5.1953-3.1406 2.4414-6.082 5.0234-8.8398 7.6719-2.7734 2.6836-5.457 5.543-7.9844 8.5781-1.168 1.3945-3.1406 1.918-4.8984 1.2188l-36.945-15.273-7.7383 12.902 30.559 25.172c1.5859 1.1172 2.2695 3.2422 1.5 5.125-1.4648 3.5898-2.7539 7.3203-3.8164 11.086-1.0625 3.7305-1.9336 7.5312-2.5977 11.402-0.31641 1.7773-1.7773 3.2422-3.6797 3.4883l-39.559 5.2656-0.28125 15.062 39.402 6.5898c1.7969 0.31641 3.2773 1.7422 3.5195 3.6602 0.31641 2.3008 0.69922 4.5664 1.1523 6.7617 0.24219 1.1523 0.48828 2.3008 0.78125 3.5234l50.977 0.011719zm89.891-66.281c-4.3047-3.5898-9.207-6.4844-14.539-8.5781-5.7344-2.2305-11.941-3.5234-18.41-3.625-14.625-0.24219-28 5.4766-37.742 14.891-9.7461 9.4141-15.914 22.559-16.16 37.203-0.070312 5.0547 0.55859 10.043 1.8477 14.785l0.050781 0.17578c1.1016 4.043 2.668 7.8438 4.6211 11.438h80.336zm-82.602-245.32h76.535l-76.535-76.535zm82.602 8.5781h-86.891c-2.3711 0-4.2891-1.918-4.2891-4.2891v-86.891h-2.2305l-246.37-0.035156v394.24h190.16l-0.38281-1.8477-0.76562-4.1836-39.957-6.6953c-2.1992-0.34766-3.7344-2.3359-3.5586-4.5312l0.38281-22.176c0.035156-2.1289 1.6406-3.8711 3.7109-4.1484l40.133-5.3359c0.625-3.1016 1.375-6.1719 2.2305-9.1719 0.87109-3.0664 1.8672-6.1016 2.9844-9.0312l-31.262-25.766c-1.6562-1.3594-2.0039-3.7305-0.95703-5.5078l11.539-19.176c1.1016-1.8477 3.3984-2.5781 5.3359-1.7422l37.41 15.445c2.0898-2.3359 4.2891-4.6367 6.5898-6.8672 2.2812-2.1953 4.6367-4.2891 7.0391-6.2773l-14.188-37.969c-0.73438-2.0234 0.10547-4.2188 1.918-5.2305l19.559-10.879c1.8828-1.0117 4.1836-0.52344 5.457 1.1523l24.703 32.113c3-1.0117 6.0664-1.918 9.1523-2.6836 3.0156-0.76562 6.082-1.3945 9.2227-1.918l6.6914-39.922c0.36719-2.1953 2.3516-3.7305 4.5312-3.5586l22.16 0.34766c2.1445 0.035156 3.8867 1.6406 4.168 3.7305l5.3164 40.133c2.2148 0.45312 4.4297 0.94141 6.6055 1.5352 1.293 0.31641 2.582 0.69922 3.8359 1.082zm-348.36 278.55v-374.23l0.03125-0.21094 0.050782-0.45312h0.019531c0.38281-1.9531 2.1094-3.418 4.1836-3.418l245.46 0.035157-0.066406-8.125h-8.457l-256.07 0.003906v386.39zm-23.43-14.609v-376.29l0.015625-0.10156 0.015625-0.10547 0.054687-0.41797h0.015625c0.38281-1.9531 2.1094-3.4492 4.1836-3.4492h255.28l-0.050781-5.9961-272.38-0.039062v386.39zm162.6-153.7c-4.4297-4.5664-10.613-7.4609-17.469-7.5664-6.8672-0.14062-13.164 2.5469-17.73 6.9727-4.5664 4.4297-7.457 10.602-7.582 17.469-0.12109 6.8711 2.5625 13.18 6.9922 17.75 4.4297 4.5664 10.598 7.4609 17.469 7.5664 6.8672 0.14062 13.145-2.5469 17.73-6.9727 4.5859-4.4297 7.4805-10.598 7.582-17.469 0.12109-6.8711-2.5625-13.145-6.9922-17.75zm-17.344-16.105c9.2383 0.14062 17.555 4.043 23.5 10.18 5.9297 6.1719 9.5195 14.574 9.3789 23.812-0.15625 9.2031-4.043 17.539-10.195 23.465-6.1562 5.9258-14.559 9.5195-23.797 9.3789-9.2227-0.14062-17.539-4.043-23.465-10.184-5.9453-6.1367-9.5352-14.574-9.3789-23.812 0.14062-9.2031 4.043-17.539 10.18-23.465s14.574-9.5156 23.777-9.375zm-75.695 32.145-0.035156 2.0234 18.27 3.0664c1.918 0.31641 3.3125 1.8477 3.543 3.6953 0.26172 1.8828 0.625 3.7305 1.0625 5.543 0.47266 1.8477 1.0469 3.6953 1.7109 5.5078 0.67969 1.8828-0.035156 3.9414-1.625 5.0195l-14.488 11.121 1.9688 3.5195 17.379-6.4844c1.7773-0.66406 3.7344-0.070313 4.8477 1.3594 1.168 1.5 2.4414 2.9648 3.7852 4.3594 1.3398 1.3945 2.7344 2.6836 4.1641 3.9023 1.4688 1.2227 1.918 3.207 1.2188 4.8828l-7.0781 17.156 3.4883 2.0938 11.781-14.297c1.2031-1.4648 3.2109-1.918 4.8828-1.2539 1.7617 0.69922 3.5938 1.3594 5.4062 1.8828 1.8477 0.52344 3.7305 0.94141 5.6133 1.2539 1.9531 0.34766 3.3828 1.9531 3.543 3.8711l2.4219 18.168 4.043 0.070313 3.0508-18.27c0.3125-1.8828 1.832-3.2773 3.625-3.5195 1.9336-0.28125 3.8164-0.66406 5.6328-1.1172 1.8828-0.45313 3.7305-1.0469 5.5078-1.6719 1.832-0.66406 3.832 0 4.9141 1.5352l11.23 14.574 3.5195-1.9883-6.4844-17.363c-0.66406-1.7773-0.050781-3.7305 1.375-4.8477 1.5508-1.2188 3-2.4766 4.3242-3.7656 1.375-1.3281 2.6836-2.7539 3.9219-4.2188 1.2734-1.5352 3.418-1.918 5.125-1.082l16.914 6.9727 2.0742-3.4883-14.281-11.785c-1.4805-1.2188-1.9336-3.207-1.2578-4.8828 0.71875-1.8125 1.3438-3.625 1.8867-5.4375 0.52344-1.8477 0.94141-3.6953 1.2539-5.5781 0.35156-1.9531 1.9531-3.3828 3.8516-3.5586l18.168-2.4062 0.070312-4.043-18.254-3.0703c-1.918-0.3125-3.332-1.8828-3.5586-3.6953-0.24609-1.8828-0.62891-3.7305-1.0625-5.543-0.47266-1.8477-1.0469-3.6953-1.6914-5.5078-0.69922-1.8477 0.015625-3.9062 1.6016-4.9883l14.488-11.156-1.9688-3.5234-17.363 6.4844c-1.7773 0.66406-3.7344 0.070313-4.8477-1.3945-1.168-1.4648-2.4414-2.9297-3.75-4.2891-1.3438-1.3594-2.7539-2.6836-4.2383-3.9414-1.5352-1.2891-1.9336-3.4141-1.0977-5.125l6.9727-16.91-3.4688-2.0938-11.781 14.297c-1.2227 1.4648-3.207 1.918-4.8984 1.2539-1.7773-0.73047-3.6094-1.3594-5.4258-1.8828-1.8477-0.52344-3.6953-0.94141-5.5781-1.2539-1.9883-0.34766-3.3828-1.9492-3.5586-3.8711l-2.4062-18.164-4.043-0.070312-3.0664 18.27c-0.31641 1.918-1.8828 3.3477-3.7305 3.5586-1.8672 0.24609-3.7344 0.62891-5.543 1.082-1.8164 0.45312-3.6445 1.0117-5.4766 1.6758-1.8633 0.69922-3.9219-0.035156-5.0039-1.6016l-11.141-14.504-3.5391 1.9883 6.5039 17.363c0.66406 1.7773 0.054688 3.7305-1.3945 4.8438-1.4844 1.1523-2.9297 2.4414-4.2891 3.7656-1.3789 1.3242-2.7031 2.7188-3.9414 4.2188-1.293 1.5352-3.418 1.918-5.1406 1.082l-16.895-6.9727-2.0938 3.4883 14.297 11.785c1.4648 1.2188 1.918 3.207 1.2383 4.8789-0.71484 1.7773-1.3398 3.625-1.8633 5.4414-0.52344 1.8477-0.94141 3.6953-1.2734 5.5781-0.33203 1.9531-1.9531 3.3828-3.8516 3.5547l-18.164 2.4062zm135.04-104.63v-64.297h8.543v64.297zm-52.824-33.754h16.633c5.5078 0 9.3945-1.0469 11.715-3.0664 2.2969-2.0586 3.4492-4.9531 3.4492-8.6836 0-2.6484-0.66406-4.9883-2.0234-6.9023-1.375-1.8828-3.1758-3.1719-5.3711-3.8008-1.4492-0.34766-4.0977-0.55859-7.9492-0.55859h-16.457zm-8.5234 33.754v-64.297h24.285c4.2539 0 7.5312 0.21094 9.7812 0.59375 3.1562 0.52344 5.8047 1.5352 7.9492 3 2.1406 1.5 3.8711 3.5547 5.1797 6.207 1.2891 2.6484 1.9336 5.5781 1.9336 8.75 0 5.4414-1.7266 10.078-5.2148 13.844-3.4883 3.8008-9.7812 5.6836-18.879 5.6836h-16.508v26.223zm-48.449-26.395h21.898l-6.6953-17.816c-2.0234-5.4414-3.5547-9.9023-4.6016-13.461-0.89062 4.2188-2.0742 8.332-3.5586 12.41zm-18.512 26.395 24.668-64.297h9.3633l26.188 64.297h-9.6914l-7.4258-19.492h-27.094l-6.9727 19.492z" fill-rule="evenodd"/>
</svg>
