<?xml version="1.0" encoding="UTF-8"?>
<svg width="752pt" height="752pt" version="1.1" viewBox="0 0 752 752" xmlns="http://www.w3.org/2000/svg">
 <g>
  <path d="m535.22 559.42h-318.44c-2.5664 0-4.6445-2.0781-4.6445-4.6445v-393.2c0-2.5664 2.082-4.6445 4.6445-4.6445h318.44c2.5664 0 4.6445 2.0781 4.6445 4.6445v393.2c0 2.5664-2.0781 4.6445-4.6406 4.6445zm-313.8-9.2852h309.15v-383.91h-309.15z"/>
  <path d="m497.9 305.26h-243.8c-8.5273 0-15.465-6.9883-15.465-15.574v-85.359c0-8.5859 6.9375-15.566 15.465-15.566h243.8c8.5234 0 15.461 6.9844 15.461 15.566v85.359c0 8.5859-6.9375 15.574-15.461 15.574zm-243.8-107.21c-3.4062 0-6.1758 2.8203-6.1758 6.2812v85.359c0 3.4648 2.7695 6.2852 6.1758 6.2852h243.8c3.4023 0 6.1719-2.8203 6.1719-6.2852v-85.359c0-3.4609-2.7734-6.2812-6.1719-6.2812z"/>
  <path d="m304.68 277.53h-11.227v-9.9688h11.227zm53.949-19.387v0.13672c0.13672 6.1445-1.6211 11.062-5.543 14.613-3.7891 3.5508-9.0625 5.4609-15.82 5.4609-6.7578 0-12.305-2.3203-16.496-6.6875-4.1914-4.3711-6.3555-9.9688-6.3555-16.938v-11.328c0-6.8281 2.1602-12.43 6.2188-16.938 4.1914-4.3711 9.4648-6.5547 16.09-6.5547 6.8945 0 12.438 1.7734 16.359 5.3242 3.9219 3.6914 5.8125 8.6055 5.6797 14.75l-0.13672 0.27344h-10.953c0-3.8242-0.80859-6.5547-2.5664-8.6055-1.8945-2.0469-4.5977-3.0039-8.3867-3.0039-3.3828 0-6.0859 1.3672-7.9805 4.0938-2.0273 2.8711-2.9727 6.2891-2.9727 10.656v11.328c0 4.375 0.94531 7.9258 3.1055 10.66 2.0312 2.7305 4.8672 4.0938 8.3867 4.0938 3.5156 0 6.2188-0.95703 7.8438-2.8633 1.7539-1.9141 2.5664-4.7773 2.5664-8.4688zm38.539 4.5039c0-2.1875-0.8125-3.9609-2.2969-5.1914-1.625-1.3672-4.3281-2.5938-8.1172-3.8242-6.7578-1.9102-11.762-4.2305-15.145-6.9648-3.5195-2.5938-5.1367-6.2852-5.1367-10.922 0-4.6445 1.8906-8.4688 5.8125-11.473 3.9219-3.0039 8.9258-4.3711 15.145-4.3711 6.082 0 11.223 1.6328 15.012 4.9141 3.9219 3.2812 5.8125 7.3789 5.6797 12.293l-0.13672 0.27344h-10.816c0-2.5977-0.94531-4.7773-2.707-6.2852-1.7539-1.6406-4.1875-2.4609-7.3008-2.4609-2.9766 0-5.2734 0.68359-7.0312 2.0508-1.625 1.3633-2.4375 3.0039-2.4375 5.0547 0 1.9102 0.94531 3.5508 2.707 4.7773 1.7539 1.2305 4.7305 2.4609 9.0547 3.8203 6.2227 1.7812 10.957 4.0977 14.199 6.9688 3.1133 2.8711 4.7344 6.5547 4.7344 11.199 0 4.918-1.8906 8.7383-5.6758 11.609-3.7891 2.7305-8.793 4.2305-15.145 4.2305-6.082 0-11.355-1.6328-15.953-4.7773-4.5977-3.2734-6.7578-7.7812-6.625-13.52v-0.13672h11.086c0 3.2734 0.94531 5.875 2.9727 7.375 2.0312 1.6406 4.8672 2.3203 8.5195 2.3203 3.1133 0 5.543-0.54297 7.1641-1.9102 1.625-1.2266 2.4375-2.8672 2.4375-5.0508zm50.164 0c0-2.1875-0.80859-3.9609-2.3008-5.1914-1.4883-1.3672-4.1875-2.5938-8.1094-3.8242-6.6289-1.9102-11.766-4.2305-15.145-6.9648-3.3828-2.5938-5.1406-6.2852-5.1406-10.922 0-4.6445 2.0273-8.4688 5.9492-11.473 3.9219-3.0039 8.9258-4.3711 15.008-4.3711 6.2188 0 11.223 1.6328 15.145 4.9141 3.7852 3.2812 5.6797 7.3789 5.543 12.293v0.27344h-10.953c0-2.5977-0.80859-4.7773-2.5703-6.2852-1.7539-1.6406-4.1875-2.4609-7.4336-2.4609-2.9766 0-5.2734 0.68359-6.8945 2.0508-1.625 1.3633-2.5703 3.0039-2.5703 5.0547 0 1.9102 0.94531 3.5508 2.707 4.7773 1.7539 1.2305 4.8672 2.4609 9.1914 3.8203 6.2227 1.7812 10.816 4.0977 14.062 6.9688s4.7344 6.5547 4.7344 11.199c0 4.918-1.8906 8.7383-5.6797 11.609-3.7891 2.7305-8.7891 4.2305-15.012 4.2305-6.082 0-11.492-1.6328-16.09-4.7773-4.4609-3.2734-6.7617-7.7812-6.625-13.52l0.12891-0.13672h10.957c0 3.2734 0.94531 5.875 3.1055 7.375 2.0312 1.6406 4.8672 2.3203 8.5195 2.3203 3.1133 0 5.4102-0.54297 7.0312-1.9102 1.6328-1.2266 2.4414-2.8672 2.4414-5.0508z"/>
  <path d="m500.74 577.58h-249.34c-2.5664 0-4.6445-2.0781-4.6445-4.6445s2.082-4.6445 4.6445-4.6445h249.34c2.5664 0 4.6445 2.0781 4.6445 4.6445 0.003906 2.5664-2.0742 4.6445-4.6406 4.6445z"/>
  <path d="m478.57 595.06h-205.13c-2.5625 0-4.6445-2.0781-4.6445-4.6445 0-2.5664 2.082-4.6445 4.6445-4.6445h205.13c2.5664 0 4.6445 2.0781 4.6445 4.6445 0 2.5703-2.0781 4.6445-4.6445 4.6445z"/>
  <path d="m412.71 498.1c-2.5664 0-4.6445-2.0781-4.6445-4.6445 0-2.5664 2.0781-4.6445 4.6445-4.6445 6.7422 0 11-0.16406 13.246-2.4414 1.9453-1.9727 2.8867-6.0938 2.8047-12.246l-0.41016-20.836c-0.51172-14.824 4.3945-23.141 8.6133-27.504 0.85156-0.88672 1.75-1.6836 2.6953-2.4102-0.93359-0.71484-1.8203-1.5117-2.6641-2.3789-4.2305-4.375-9.1641-12.715-8.6406-27.539l0.40625-20.945c0.085937-6.1406-0.85547-10.262-2.8047-12.234-2.2461-2.2773-6.5039-2.4414-13.246-2.4414-2.5664 0-4.6445-2.0781-4.6445-4.6445s2.0781-4.6445 4.6445-4.6445c7.2383 0 14.727 0 19.859 5.207 3.8555 3.9141 5.6016 9.918 5.4688 18.898l-0.26953 15.723v0.015625 0.011719 0.003906 0.003906 0.003906 0.003907l-0.13281 5.3125c-0.32031 9.0742 1.8281 16.449 6.0352 20.809 2.6602 2.7539 6.0742 4.207 9.8711 4.207 2.5664 0 4.6445 2.0742 4.6445 4.6445 0 2.5664-2.0781 4.6445-4.6445 4.6445-3.8242 0-7.2539 1.4492-9.9023 4.1953-4.1875 4.3359-6.3203 11.715-6.0078 20.77l0.13672 5.2148v0.058594l0.26953 15.703c0.12891 8.9961-1.6133 15-5.4688 18.914-5.1328 5.2109-12.621 5.2109-19.859 5.2109zm-73.422 0c-7.2422 0-14.727 0-19.867-5.207-3.8555-3.9141-5.5938-9.918-5.4688-18.898l0.26953-15.719v-0.058594l0.13672-5.1758c0.32031-9.0938-1.8164-16.473-6.0039-20.809-2.6523-2.75-6.0781-4.1953-9.9062-4.1953-2.5625 0-4.6445-2.0781-4.6445-4.6445 0-2.5664 2.082-4.6445 4.6445-4.6445 3.8047 0 7.2188-1.4531 9.875-4.207 4.2148-4.3633 6.3555-11.738 6.0391-20.762l-0.13672-5.3594v-0.007813-0.011718-0.011719-0.015625l-0.26953-15.707c-0.125-8.9961 1.6133-15 5.4688-18.914 5.1367-5.207 12.625-5.207 19.867-5.207 2.5625 0 4.6445 2.0781 4.6445 4.6445s-2.082 4.6445-4.6445 4.6445c-6.7461 0-11.004 0.16406-13.25 2.4414-1.9453 1.9688-2.8867 6.0938-2.8008 12.246l0.40625 20.977c0.52344 14.777-4.4102 23.109-8.6406 27.492-0.84375 0.875-1.7344 1.6719-2.6602 2.3828 0.94531 0.72266 1.8398 1.5273 2.6953 2.4102 4.2148 4.3633 9.125 12.684 8.6055 27.543l-0.40234 20.809c-0.085938 6.1406 0.85547 10.262 2.8008 12.234 2.2461 2.2773 6.5039 2.4414 13.25 2.4414 2.5625 0 4.6445 2.0742 4.6445 4.6445-0.007812 2.5664-2.0898 4.6445-4.6523 4.6445z"/>
 </g>
</svg>
