<?xml version="1.0" encoding="UTF-8"?>
<svg width="752pt" height="752pt" version="1.1" viewBox="0 0 752 752" xmlns="http://www.w3.org/2000/svg">
 <g>
  <path d="m439.81 548.07c-8.2539 0-15.332 5.5312-18.266 12.004h-18.781c-2.7344-9.2344-10.062-16.391-19.359-18.898v-23.652h-14.801v23.648c-9.25 2.6055-17.09 9.6523-19.691 18.902h-18.785c-2.9336-6.4766-10.008-12.004-18.266-12.004-5.2461 0.039063-10.258 2.1523-13.953 5.875-3.6914 3.7227-5.7656 8.7539-5.7656 14 0.054687 6.1406 2.9805 11.906 7.9023 15.578 4.9258 3.6758 11.281 4.8359 17.188 3.1367 5.9023-1.6992 10.672-6.0586 12.895-11.789h18.781c2.1758 7.9219 7.7266 14.48 15.176 17.938 7.4531 3.457 16.047 3.457 23.5 0 7.4492-3.457 13-10.016 15.176-17.938h18.781c1.7422 4.4727 5.0586 8.1484 9.3242 10.344 4.2656 2.1953 9.1875 2.7539 13.836 1.5742 4.6523-1.1797 8.707-4.0195 11.41-7.9844 2.7031-3.9648 3.8594-8.7812 3.2578-13.539-0.60156-4.7617-2.9219-9.1367-6.5234-12.305-3.6055-3.1641-8.2422-4.9062-13.039-4.8906zm-127.95 24.953c-1.9922 0-3.7852-1.1992-4.5469-3.0391-0.76172-1.8359-0.33984-3.9531 1.0664-5.3594s3.5234-1.8281 5.3633-1.0664c1.8359 0.76172 3.0352 2.5547 3.0352 4.5469-0.003906 2.7148-2.2031 4.9141-4.918 4.918z"/>
  <path d="m312.09 472.98c-2.8203 0-5.3672 1.7031-6.4453 4.3086-1.0781 2.6055-0.48438 5.6094 1.5117 7.6016 1.9961 1.9961 4.9961 2.5938 7.6055 1.5156 2.6055-1.082 4.3047-3.625 4.3047-6.4492-0.050781-3.832-3.1445-6.9258-6.9766-6.9766z"/>
  <path d="m312.09 357.94c-2.8203 0-5.3672 1.6992-6.4453 4.3086-1.0781 2.6055-0.48438 5.6055 1.5117 7.6016 1.9961 1.9961 4.9961 2.5938 7.6055 1.5117 2.6055-1.0781 4.3047-3.6211 4.3047-6.4453-0.050781-3.832-3.1445-6.9258-6.9766-6.9766z"/>
  <path d="m471.27 468.24c0-4.8398-1.9219-9.4766-5.3438-12.898-3.418-3.4219-8.0586-5.3398-12.895-5.3398h-154.07c-4.8359 0-9.4766 1.918-12.895 5.3398-3.4219 3.4219-5.3438 8.0586-5.3438 12.898v23.645c0 4.8359 1.9219 9.4766 5.3438 12.898 3.418 3.418 8.0586 5.3398 12.895 5.3398h154.07c4.8359 0 9.4766-1.9219 12.895-5.3398 3.4219-3.4219 5.3438-8.0625 5.3438-12.898zm-159.19 33.496c-5.7734 0-11.312-2.293-15.398-6.3789-4.082-4.082-6.3789-9.6211-6.3789-15.398 0-5.7734 2.2969-11.312 6.3789-15.395 4.0859-4.0859 9.625-6.3789 15.398-6.3789 5.7773 0 11.316 2.293 15.398 6.3789 4.0859 4.082 6.3789 9.6211 6.3789 15.395-0.007812 5.7734-2.3047 11.309-6.3867 15.391-4.082 4.0859-9.6172 6.3789-15.391 6.3867zm100.91-12.012c0 4.0859-3.3125 7.4023-7.3984 7.4023-4.0898 0-7.4023-3.3164-7.4023-7.4023v-19.531c0-4.0859 3.3125-7.3984 7.4023-7.3984 4.0859 0 7.3984 3.3125 7.3984 7.3984zm18.5 0c0 4.0859-3.3125 7.4023-7.4023 7.4023-4.0859 0-7.3984-3.3164-7.3984-7.4023v-19.531c0-4.0859 3.3125-7.3984 7.3984-7.3984 4.0898 0 7.4023 3.3125 7.4023 7.3984zm18.5 0c0 4.0859-3.3164 7.4023-7.4023 7.4023-4.0859 0-7.3984-3.3164-7.3984-7.4023v-19.531c0-4.0859 3.3125-7.3984 7.3984-7.3984 4.0859 0 7.4023 3.3125 7.4023 7.3984z"/>
  <path d="m573.45 339.74c-0.32031-18.879-8.8555-36.68-23.371-48.75-14.52-12.07-33.578-17.215-52.195-14.086-2.2031 0.44141-4.4844-0.14453-6.207-1.5859-1.7188-1.4453-2.6914-3.5898-2.6406-5.832 0.011719-0.44922 0.011719-0.88281 0.011719-1.332 0-61.629-50.156-111.74-111.8-111.74-24.32 0.078126-47.957 8.0547-67.355 22.723-19.402 14.668-33.512 35.238-40.219 58.617-0.81641 2.8789-3.2852 4.9766-6.2578 5.3164-23.469 2.7891-45.102 14.098-60.781 31.785-15.68 17.684-24.32 40.512-24.277 64.148h-0.019531c0.023437 0.25 0.035156 0.5 0.03125 0.75 0 0.16406 0 0.13281-0.011719 0.29688 0.12891 19.871 8.1094 38.883 22.199 52.895 14.09 14.012 33.145 21.883 53.016 21.906h115.04v-5.5508h-69.934c-8.6836 0.082031-17.031-3.3242-23.184-9.4453-6.1523-6.125-9.5938-14.461-9.5547-23.141v-23.586c0-18.223 14.523-33.551 32.738-33.551h154.34c18.219 0 33.066 15.328 33.066 33.543v23.586c0 18.219-14.852 32.586-33.066 32.586l-69.602 0.003906v5.5508l115.04-0.003906c19.645-0.007812 38.508-7.7031 52.559-21.434 14.051-13.73 22.176-32.41 22.641-52.051-0.12891-0.52734-0.19531-1.0703-0.19531-1.6172z"/>
  <path d="m471.27 352.62c0-4.8359-1.9219-9.4766-5.3438-12.898-3.418-3.418-8.0586-5.3398-12.895-5.3398h-154.07c-4.8359 0-9.4766 1.9219-12.898 5.3398-3.418 3.4219-5.3398 8.0625-5.3398 12.898v23.645c0 4.8359 1.9219 9.4766 5.3398 12.898 3.4219 3.418 8.0625 5.3398 12.898 5.3398h154.07c4.8359 0 9.4766-1.9219 12.895-5.3398 3.4219-3.4219 5.3438-8.0625 5.3438-12.898zm-159.19 34.078c-5.7734 0-11.312-2.293-15.398-6.3789-4.082-4.082-6.3789-9.6211-6.3789-15.398 0-5.7734 2.2969-11.312 6.3789-15.398 4.0859-4.082 9.625-6.3789 15.398-6.3789 5.7773 0 11.316 2.2969 15.398 6.3789 4.0859 4.0859 6.3789 9.625 6.3789 15.398-0.007812 5.7734-2.3047 11.309-6.3867 15.391-4.082 4.082-9.6172 6.3789-15.391 6.3867zm100.91-14.785c0 4.0859-3.3125 7.3984-7.3984 7.3984-4.0898 0-7.4023-3.3125-7.4023-7.3984v-19.531c0-4.0859 3.3125-7.4023 7.4023-7.4023 4.0859 0 7.3984 3.3164 7.3984 7.4023zm18.5-0.28125v-0.003906c0 4.0859-3.3125 7.3984-7.4023 7.3984-4.0859 0-7.3984-3.3125-7.3984-7.3984v-19.531c0-4.0859 3.3125-7.3984 7.3984-7.3984 4.0898 0 7.4023 3.3125 7.4023 7.3984zm18.5 0v-0.003906c0 4.0859-3.3164 7.3984-7.4023 7.3984-4.0859 0-7.3984-3.3125-7.3984-7.3984v-19.531c0-4.0859 3.3125-7.3984 7.3984-7.3984 4.0859 0 7.4023 3.3125 7.4023 7.3984z"/>
  <path d="m368.6 423.18h14.801v20.348h-14.801z"/>
 </g>
</svg>
