<?xml version="1.0" encoding="UTF-8"?>
<svg width="752pt" height="752pt" version="1.1" viewBox="0 0 752 752" xmlns="http://www.w3.org/2000/svg">
 <defs>
  <clipPath id="a">
   <path d="m139.21 139.21h473.58v473.58h-473.58z"/>
  </clipPath>
 </defs>
 <g clip-path="url(#a)">
  <path d="m562.84 139.21h-373.68c-13.242 0.019531-25.934 5.2891-35.297 14.652s-14.633 22.055-14.652 35.297v321.89c0.019531 13.238 5.2891 25.934 14.652 35.297s22.055 14.629 35.297 14.648h57.348v24.051c0 7.3594 2.9219 14.418 8.125 19.621 5.207 5.2031 12.262 8.1289 19.621 8.1289h203.49c7.3594 0 14.418-2.9258 19.621-8.1289 5.207-5.2031 8.1289-12.262 8.1289-19.621v-24.051h57.348c13.242-0.019532 25.934-5.2852 35.297-14.648s14.633-22.059 14.652-35.297v-321.89c-0.019531-13.242-5.2891-25.934-14.652-35.297s-22.055-14.633-35.297-14.652zm-70.297 46.25h59.199c6.1289 0 11.098 4.9688 11.098 11.098s-4.9688 11.098-11.098 11.098h-59.199c-6.1289 0-11.102-4.9688-11.102-11.098s4.9727-11.098 11.102-11.098zm-177.59 0c4.4883 0 8.5391 2.7031 10.254 6.8516 1.7188 4.1445 0.76953 8.9219-2.4062 12.094-3.1719 3.1758-7.9453 4.125-12.094 2.4062-4.1484-1.7188-6.8516-5.7656-6.8516-10.254 0-6.1289 4.9688-11.098 11.098-11.098zm-59.199 0h0.003906c4.4883 0 8.5352 2.7031 10.254 6.8516 1.7188 4.1445 0.76562 8.9219-2.4062 12.094-3.1758 3.1758-7.9492 4.125-12.098 2.4062-4.1484-1.7188-6.8516-5.7656-6.8516-10.254 0-6.1289 4.9688-11.098 11.102-11.098zm-59.199 0h0.003906c4.4883 0 8.5352 2.7031 10.254 6.8516 1.7188 4.1445 0.76953 8.9219-2.4062 12.094-3.1719 3.1758-7.9492 4.125-12.094 2.4062-4.1484-1.7188-6.8516-5.7656-6.8516-10.254 0-6.1289 4.9688-11.098 11.098-11.098zm122.09 303.61h0.003906c0 3.0625-2.4844 5.5469-5.5469 5.5469-3.0664 0-5.5508-2.4844-5.5508-5.5469v-24.051h-25.898v24.051c0 3.0625-2.4844 5.5469-5.5508 5.5469-3.0664 0-5.5508-2.4844-5.5508-5.5469v-55.5c0-3.0625 2.4844-5.5508 5.5508-5.5508 3.0664 0 5.5508 2.4883 5.5508 5.5508v20.348h25.898v-20.348c0-3.0625 2.4844-5.5508 5.5508-5.5508 3.0625 0 5.5469 2.4883 5.5469 5.5508zm-59.934-135.27c0.83594-2.2734 2.1484-4.3438 3.8477-6.0664l45.398-44.656c0.45703-0.41406 0.9375-0.79688 1.4414-1.1484v46.324c0 3.0625-2.4844 5.5469-5.5469 5.5469zm108.04 85.32h-11.098v49.949c0 3.0625-2.4844 5.5469-5.5508 5.5469-3.0625 0-5.5508-2.4844-5.5508-5.5469v-49.949h-11.098c-3.0664 0-5.5508-2.4844-5.5508-5.5508 0-3.0625 2.4844-5.5508 5.5508-5.5508h33.297c3.0664 0 5.5508 2.4883 5.5508 5.5508 0 3.0664-2.4844 5.5508-5.5508 5.5508zm59.199 49.949c0 3.0625-2.4844 5.5469-5.5508 5.5469-3.0625 0-5.5469-2.4844-5.5469-5.5469v-35.887l-6.3281 10.582v-0.003906c-1.0312 1.6406-2.8359 2.6367-4.7734 2.6367s-3.7422-0.99609-4.7734-2.6367l-6.3242-10.582v35.891c0 3.0625-2.4844 5.5469-5.5508 5.5469-3.0664 0-5.5508-2.4844-5.5508-5.5469v-55.941c-0.007812-2.5039 1.6602-4.7031 4.0742-5.3672 2.4102-0.66797 4.9727 0.36328 6.25 2.5156l11.875 19.832 11.875-19.832c1.2773-2.1523 3.8398-3.1836 6.25-2.5156 2.4141 0.66406 4.082 2.8633 4.0742 5.3672zm49.949 5.5469h-33.301c-3.0625 0-5.5469-2.4844-5.5469-5.5469v-55.5c0-3.0625 2.4844-5.5508 5.5469-5.5508 3.0664 0 5.5508 2.4883 5.5508 5.5508v49.949h27.75c3.0625 0 5.5469 2.4844 5.5469 5.5508 0 3.0625-2.4844 5.5469-5.5469 5.5469zm125.8 16.426-0.003906 0.003906c-0.011718 10.297-4.1094 20.172-11.391 27.457-7.2812 7.2812-17.156 11.379-27.457 11.391h-57.348v-234.94c0-7.3594-2.9219-14.418-8.1289-19.621-5.2031-5.2031-12.262-8.1289-19.621-8.1289h-158.09c-7.2852-0.023437-14.281 2.8359-19.461 7.957l-45.398 44.695c-5.2734 5.2227-8.2578 12.332-8.2852 19.754v190.29h-57.348c-10.301-0.011719-20.176-4.1094-27.457-11.391-7.2852-7.2852-11.383-17.16-11.395-27.457v-260.84h451.38z"/>
 </g>
</svg>
