<?xml version="1.0" encoding="UTF-8"?>
<svg width="752pt" height="752pt" version="1.1" viewBox="0 0 752 752" xmlns="http://www.w3.org/2000/svg">
 <g>
  <path d="m532.28 240.23v0.027344l-67.891-67.891h0.027344l-9.4727-9.4727h-244.7v426.22h331.51l-0.003906-94.715v-244.7zm-75.625-62.207 69.961 69.961-69.961 0.003906zm-91.164 374.2c0 14.41-7.0859 18.84-16.422 18.84-2.5781 0-5.7148-0.55859-7.4883-1.2852l1.0469-5.7148c1.4492 0.5625 3.543 1.0469 5.8789 1.0469 6.2812 0 9.9844-2.8164 9.9844-13.441v-35.746h7.0039zm22.785 18.762c-5.2266 0-10.949-1.5312-13.844-3.457l1.7695-5.8789c3.1406 1.9336 7.7227 3.543 12.559 3.543 7.1641 0 11.348-3.7852 11.348-9.2578 0-5.0703-2.8984-7.9688-10.227-10.785-8.8516-3.1406-14.324-7.7305-14.324-15.379 0-8.4531 7.0039-14.727 17.551-14.727 5.5547 0 9.5742 1.2852 11.992 2.6562l-1.9336 5.7148c-1.7656-0.96484-5.3945-2.5781-10.305-2.5781-7.4023 0-10.219 4.4297-10.219 8.1328 0 5.0703 3.3008 7.5664 10.785 10.465 9.1797 3.543 13.848 7.9688 13.848 15.938 0 8.3711-6.1992 15.613-19 15.613zm144-76.578h-312.56v-322.04h227.46v85.098h85.098z"/>
  <path d="m259.39 373.43 79.574-36.973v17.57l-60.18 26.355v0.33203l60.18 26.359v17.57l-79.57-36.969z"/>
  <path d="m351.22 431.28 35.473-120.18h16.746l-35.477 120.18z"/>
  <path d="m492.62 388.18-79.57 36.465v-17.57l61.5-26.359v-0.33203l-61.5-26.355v-17.57l79.57 36.469z"/>
 </g>
</svg>
